<svg xmlns="http://www.w3.org/2000/svg" aria-hidden="true" role="img" width="1em" height="1em" preserveAspectRatio="xMidYMid meet" viewBox="0 0 256 256"><path fill="currentColor" d="M216 40H40a16 16 0 0 0-16 16v144a16 16 0 0 0 16 16h13.4a7.9 7.9 0 0 0 7.2-4.6a48.1 48.1 0 0 1 86.8 0a7.9 7.9 0 0 0 7.2 4.6H216a16 16 0 0 0 16-16V56a16 16 0 0 0-16-16ZM104 168a32 32 0 1 1 32-32a32.1 32.1 0 0 1-32 32Zm112 32h-56.6a63.7 63.7 0 0 0-13.1-16H192a8 8 0 0 0 8-8V80a8 8 0 0 0-8-8H64a8 8 0 0 0-8 8v96a8 8 0 0 0 6 7.7A64.2 64.2 0 0 0 48.6 200H40V56h176Z"/></svg>